<?xml version="1.0" encoding="UTF-8"?>
<svg width="12px" height="15px" viewBox="0 0 12 15" version="1.1" xmlns="http://www.w3.org/2000/svg" xmlns:xlink="http://www.w3.org/1999/xlink">
    <title>已激活</title>
    <g id="页面-1" stroke="none" stroke-width="1" fill="none" fill-rule="evenodd">
        <g id="dashboard" transform="translate(-381, -467)" fill="#31CF9A" fill-rule="nonzero">
            <g id="已激活" transform="translate(381.2034, 467.6409)">
                <path d="M5.18948985,3.11346243 C3.34442608,3.29863013 1.75330656,4.6126594 1.24541806,6.38894662 C0.599976403,8.53358527 1.61443081,10.7476618 3.46015588,11.7627775 L3.46015588,12.5695796 C3.46015588,13.353897 4.17437411,14 5.07442135,14 L6.25089751,14 C7.12713747,14 7.86516298,13.353897 7.86516298,12.5702409 L7.86516298,11.7627775 C9.34825067,10.9516386 10.2686481,9.3940429 10.2637654,7.7036372 C10.2637654,5.00481813 7.93460085,2.8363722 5.18948985,3.11412376 L5.18948985,3.11346243 Z M8.46497404,8.04951821 C8.25101818,8.04328851 8.07903082,7.87130116 8.0728153,7.65734531 C8.0728153,7.51846953 8.04966936,7.38025508 8.02652338,7.24204063 C7.88830893,6.41143127 7.3347898,5.74284366 6.57361834,5.42012281 C6.36596602,5.32753896 6.27404346,5.11988663 6.36596599,4.91223428 C6.45854984,4.70524325 6.66620216,4.63580537 6.87319319,4.70524328 C7.89033441,5.11599059 8.62309748,6.02306623 8.81084081,7.10382618 C8.83398676,7.28833255 8.85714694,7.47283893 8.85714694,7.65734531 C8.85802328,7.76162272 8.81699271,7.86188808 8.74325476,7.93562603 C8.6695168,8.00936398 8.56925145,8.05039455 8.46497404,8.04951821 L8.46497404,8.04951821 Z M5.65108646,0 C6.03251801,0.00145032227 6.34136972,0.310302032 6.34282004,0.691733582 L6.34282004,1.36032122 C6.34173225,1.74201099 6.03277502,2.05126359 5.65108646,2.0527161 C5.27276504,2.04330171 4.96840576,1.73865145 4.95935287,1.36032122 L4.95935287,0.714879531 C4.93620693,0.322720828 5.25892775,0 5.65108646,0 Z M11.0943552,2.23722247 C11.227154,2.36809598 11.3019235,2.54675798 11.3019235,2.73320737 C11.3019235,2.91965675 11.227154,3.09831875 11.0943552,3.22919226 L10.610274,3.71327349 C10.4794005,3.84607219 10.3007385,3.92084171 10.1142891,3.92084171 C9.92783972,3.92084171 9.74917774,3.84607219 9.61830422,3.71327349 C9.48550552,3.58239998 9.410736,3.40373799 9.410736,3.21728861 C9.410736,3.03083923 9.48550552,2.85217724 9.61830422,2.72130373 L10.1023855,2.23722247 C10.233259,2.10442376 10.411921,2.02965424 10.5983703,2.02965424 C10.7848197,2.02965424 10.9634817,2.10442376 11.0943552,2.23722247 Z M0.207817671,2.2835144 C0.338691183,2.1507157 0.51735317,2.07594618 0.703802551,2.07594618 C0.890251931,2.07594618 1.06891392,2.1507157 1.19978743,2.2835144 L1.68386869,2.76759565 C1.81666739,2.89846917 1.89143691,3.07713115 1.89143691,3.26358053 C1.89143691,3.45002991 1.81666739,3.6286919 1.68386869,3.75956541 C1.55299518,3.89236412 1.37433319,3.96713364 1.18788381,3.96713364 C1.00143443,3.96713364 0.82277244,3.89236412 0.691898928,3.75956541 L0.207817671,3.27482286 C-0.0692725571,3.02153991 -0.0692725571,2.5599433 0.207817671,2.2828531 L0.207817671,2.2835144 Z" id="形状"></path>
            </g>
        </g>
    </g>
</svg>