<?xml version="1.0" encoding="UTF-8"?>
<svg width="14px" height="14px" viewBox="0 0 14 14" version="1.1" xmlns="http://www.w3.org/2000/svg" xmlns:xlink="http://www.w3.org/1999/xlink">
    <title>复制</title>
    <g id="页面-1" stroke="none" stroke-width="1" fill="none" fill-rule="evenodd">
        <g id="画板" transform="translate(-357, -179)" stroke="#979797">
            <g id="编组-6" transform="translate(357, 179)">
                <g id="详情备份-2" transform="translate(0.5, 0.5)">
                    <rect id="矩形" x="0.5" y="0.5" width="10" height="10" rx="2"></rect>
                    <line x1="3.5" y1="5.5" x2="7.5" y2="5.5" id="直线-2" stroke-linecap="round"></line>
                    <line x1="5.5" y1="3.5" x2="5.5" y2="7.5" id="直线-2备份" stroke-linecap="round"></line>
                    <path d="M11,3.5 C11.4142136,3.5 11.7892136,3.66789322 12.0606602,3.93933983 C12.3321068,4.21078644 12.5,4.58578644 12.5,5 L12.5,11 C12.5,11.4142136 12.3321068,11.7892136 12.0606602,12.0606602 C11.7892136,12.3321068 11.4142136,12.5 11,12.5 L5,12.5 C4.58578644,12.5 4.21078644,12.3321068 3.93933983,12.0606602 C3.66789322,11.7892136 3.5,11.4142136 3.5,11 L3.5,10.5 L8.99805464,10.5 C9.4122682,10.5 9.7872682,10.3321068 10.0587148,10.0606602 C10.3301614,9.78921356 10.4980546,9.41421356 10.4980546,9 L10.4980546,3.5 Z" id="矩形备份"></path>
                </g>
            </g>
        </g>
    </g>
</svg>