<?xml version="1.0" encoding="UTF-8"?>
<svg width="16px" height="14px" viewBox="0 0 16 14" version="1.1" xmlns="http://www.w3.org/2000/svg" xmlns:xlink="http://www.w3.org/1999/xlink">
    <title>优惠券 (1)</title>
    <g id="页面-1" stroke="none" stroke-width="1" fill="none" fill-rule="evenodd" opacity="0.498179">
        <g id="Promotion-List" transform="translate(-668, -744)" fill="#91969F" fill-rule="nonzero">
            <g id="优惠券-(1)" transform="translate(668, 744)">
                <path d="M13.8,-3.04518316e-16 C15.015,-3.04518316e-16 16,0.984999995 16,2.2 L16,5 C16,5.33137084 15.7313709,5.59999999 15.4,5.59999999 C14.6268014,5.59999999 14,6.22680135 14,7 C14,7.77319865 14.6268014,8.40000001 15.4,8.40000001 C15.7313709,8.40000001 16,8.66862916 16,9 L16,11.8 C16,13.015 15.015,14 13.8,14 L2.20000001,14 C0.985000013,14 3.04518316e-16,13.015 3.04518316e-16,11.8 L3.04518316e-16,9 C3.04518316e-16,8.66862916 0.26862915,8.40000001 0.600000001,8.40000001 C1.37319865,8.40000001 2,7.77319865 2,7 C2,6.22680135 1.37319865,5.59999999 0.600000001,5.59999999 C0.26862915,5.59999999 3.04518316e-16,5.33137084 3.04518316e-16,5 L3.04518316e-16,2.2 C3.04518316e-16,0.984999995 0.984999995,-3.04518316e-16 2.20000001,-3.04518316e-16 L13.8,-3.04518316e-16 L13.8,-3.04518316e-16 Z M6.43580001,3.5874 C6.21808459,3.35736544 5.85906475,3.33617451 5.61580002,3.53899999 L5.58740001,3.56419999 C5.35736544,3.78191542 5.33617452,4.14093527 5.53900002,4.3842 L6.88560001,6.00000001 L6.00000001,6.00000001 L5.96480001,6.001 C5.6476357,6.01963907 5.3999823,6.28228848 5.4,6.60000001 L5.40100002,6.6352 C5.41963909,6.9523643 5.68228849,7.2000177 6.00000001,7.20000001 L7.50000001,7.20000001 L7.50000001,7.99999999 L6.00000001,7.99999999 L5.96480001,8.00100001 C5.64763571,8.01963908 5.39998231,8.28228848 5.4,8.6 L5.40100002,8.63520001 C5.4196391,8.9523643 5.68228849,9.20001769 6.00000001,9.2 L7.50000001,9.2 L7.50000001,10 L7.50100002,10.0352 C7.51963909,10.3523643 7.78228849,10.6 8.10000001,10.6 L8.13520002,10.599 C8.45236432,10.5803609 8.70001771,10.3177115 8.70000001,10 L8.70000001,9.2 L10,9.2 L10.0352,9.199 C10.3523643,9.18036093 10.6000177,8.91771152 10.6,8.6 L10.599,8.5648 C10.5803609,8.2476357 10.3177115,7.9999823 10,7.99999999 L8.70000001,7.99999999 L8.70000001,7.20000001 L10,7.20000001 L10.0352,7.19899999 C10.3523643,7.18036092 10.6000177,6.91771153 10.6,6.60000001 L10.599,6.56479999 C10.5803609,6.2476357 10.3177115,5.99998231 10,6.00000001 L9.11400001,6.00000001 L10.461,4.384 L10.4844,4.3542 C10.6778419,4.09271444 10.6277093,3.72471314 10.3713705,3.52450099 C10.1150317,3.32428885 9.74584551,3.36478323 9.53900001,3.61579999 L8.00000001,5.4628 L6.46100001,3.61579999 L6.43580001,3.5874 Z" id="形状"></path>
            </g>
        </g>
    </g>
</svg>