<?xml version="1.0" encoding="UTF-8"?>
<svg width="50px" height="50px" viewBox="0 0 50 50" version="1.1" xmlns="http://www.w3.org/2000/svg" xmlns:xlink="http://www.w3.org/1999/xlink">
    <title>创建失败</title>
    <g id="页面-1" stroke="none" stroke-width="1" fill="none" fill-rule="evenodd">
        <g id="画板" transform="translate(-948, -793)" fill="#F75159" fill-rule="nonzero">
            <g id="编组-2" transform="translate(948, 793)">
                <g id="创建失败" transform="translate(2, 0)">
                    <path d="M40.3834868,0 C43.3550265,0 45.8403662,2.25742372 46.125634,5.21523886 L46.1525596,5.76906954 L46.1525596,24.9993013 C46.15439,25.9953853 45.3953019,26.8279977 44.4032906,26.9179988 C43.4112792,27.0079998 42.51474,26.3255955 42.3372783,25.3454455 L42.3065099,24.9993013 L42.3065099,5.76906954 C42.3068196,4.84027892 41.6432513,4.043997 40.7296309,3.87681473 L40.3834868,3.84604636 L5.76906954,3.84604636 C4.84027892,3.84573672 4.043997,4.50930498 3.87681473,5.42292537 L3.84604636,5.76906954 L3.84604636,44.2295331 C3.84573672,45.1583237 4.50930498,45.9546057 5.42292537,46.1217879 L5.76906954,46.1525563 L21.153255,46.1525563 C22.149339,46.1507226 22.9819514,46.9098107 23.0719524,47.901822 C23.1619534,48.8938334 22.4795492,49.7903726 21.4993991,49.9678343 L21.153255,49.9986027 L5.76906954,49.9986027 C2.79752985,49.9986027 0.312190132,47.7411789 0.0269223245,44.7833638 L0,44.2295331 L0,5.76906954 C0,2.79752985 2.25742372,0.312190132 5.21523886,0.0269223245 L5.76906954,0 L40.3834868,0 Z M31.860648,33.0336922 L32.1298713,33.2529168 L37.498952,38.6258436 L42.8680327,33.2529168 L43.137256,33.0336922 C43.9009877,32.5111009 44.9286274,32.6065924 45.5829927,33.2609577 C46.237358,33.915323 46.3328495,34.9429626 45.8102582,35.7066944 L45.5910335,35.9759176 L40.2181068,41.3449984 L45.5910335,46.7140791 C46.2972569,47.4171534 46.349381,48.5432491 45.7111251,49.3085558 C45.0728693,50.0738626 43.955718,50.224798 43.137256,49.6563045 L42.8680327,49.4370799 L37.498952,44.0641531 L32.1298713,49.4370799 L31.860648,49.6563045 C31.0969163,50.1788958 30.0692766,50.0834043 29.4149113,49.429039 C28.760546,48.7746738 28.6650545,47.7470341 29.1876458,46.9833023 L29.4068705,46.7140791 L34.7797972,41.3449984 L29.4068705,35.9759176 C28.7006471,35.2728433 28.648523,34.1467477 29.2867789,33.3814409 C29.9250347,32.6161341 31.0421859,32.4651987 31.860648,33.0336922 L31.860648,33.0336922 Z M34.6144172,21.1532517 C35.6105012,21.1514213 36.4431136,21.9105093 36.5331147,22.9025207 C36.6231157,23.894532 35.9407114,24.7910712 34.9605614,24.968533 L34.6144172,24.9993046 L11.5381391,24.9993046 C10.5420551,25.001135 9.70944268,24.242047 9.61944165,23.2500356 C9.52944062,22.2580243 10.2118449,21.3614851 11.1919949,21.1840233 L11.5381391,21.1532517 L34.6144172,21.1532517 Z M34.6144172,11.5381358 C35.6105012,11.5363054 36.4431136,12.2953935 36.5331147,13.2874048 C36.6231157,14.2794162 35.9407114,15.1759553 34.9605614,15.3534171 L34.6144172,15.3841887 L11.5381391,15.3841887 C10.5420551,15.3860191 9.70944268,14.6269311 9.61944165,13.6349197 C9.52944062,12.6429084 10.2118449,11.7463692 11.1919949,11.5689074 L11.5381391,11.5381358 L34.6144172,11.5381358 Z" id="形状"></path>
                </g>
            </g>
        </g>
    </g>
</svg>