<?xml version="1.0" encoding="UTF-8"?>
<svg width="16px" height="16px" viewBox="0 0 16 16" version="1.1" xmlns="http://www.w3.org/2000/svg" xmlns:xlink="http://www.w3.org/1999/xlink">
    <title>包含商品</title>
    <g id="页面-1" stroke="none" stroke-width="1" fill="none" fill-rule="evenodd" opacity="0.399679">
        <g id="画板" transform="translate(-39, -255)" fill="#5D6177" fill-rule="nonzero">
            <g id="不包含备份" transform="translate(46.841, 262.965) scale(-1, 1) translate(-46.841, -262.965)translate(40, 257.2727)">
                <path d="M1.9093592,4.13636364 C1.9093592,2.9069091 2.90717738,1.90909092 4.13663193,1.90909092 L13.6820865,1.90909092 L13.6820865,0 L4.13663193,0 C2.65878763,-9.5851971e-05 1.29316218,0.78826964 0.554212363,2.06810437 C-0.184737454,3.3479391 -0.184737454,4.92478818 0.554212363,6.2046229 C1.29316218,7.48445763 2.65878763,8.27282312 4.13663193,8.27272727 L13.6820865,8.27272727 L13.6820865,6.36363637 L4.13663193,6.36363637 C2.90654316,6.36363637 1.9093592,5.36645241 1.9093592,4.13636364 Z M0.318450113,11.3845455 L13.6820865,11.3845455 L13.6820865,9.47545454 L0.318450113,9.47545454 L0.318450113,11.3845455 Z" id="形状"></path>
            </g>
        </g>
    </g>
</svg>