<?xml version="1.0" encoding="UTF-8"?>
<svg width="14px" height="14px" viewBox="0 0 14 14" version="1.1" xmlns="http://www.w3.org/2000/svg" xmlns:xlink="http://www.w3.org/1999/xlink">
    <title>使用中</title>
    <g id="页面-1" stroke="none" stroke-width="1" fill="none" fill-rule="evenodd">
        <g id="dashboard" transform="translate(-381, -510)" fill="#31CF9A" fill-rule="nonzero">
            <g id="编组-9备份-9" transform="translate(187, 363)">
                <g id="使用中" transform="translate(194, 147)">
                    <path d="M7.00039996,3.00233353 C9.20953896,3.00255442 11.0002209,4.79359449 11,7.00273349 C10.9997791,9.21187249 9.20873904,11.0025544 6.99960004,11.0023335 C4.79046104,11.0021126 2.99977911,9.21107257 3,7.00193357 C3.00022089,4.79279457 4.79126096,3.00211264 7.00039996,3.00233353 Z" id="路径"></path>
                    <path d="M7.00058338,14 C3.13976165,14 0,10.8614051 0,7.00058338 C0,3.13976165 3.13976165,0 7.00058338,0 C10.8648436,0.00450187721 13.9961422,3.13632245 14,7.00058338 C13.9954993,10.8643887 10.8643887,13.9954993 7.00058338,14 Z" id="形状" opacity="0.204525902"></path>
                </g>
            </g>
        </g>
    </g>
</svg>