<?xml version="1.0" encoding="UTF-8"?>
<svg width="16px" height="16px" viewBox="0 0 16 16" version="1.1" xmlns="http://www.w3.org/2000/svg" xmlns:xlink="http://www.w3.org/1999/xlink">
    <title>排除商品</title>
    <g id="页面-1" stroke="none" stroke-width="1" fill="none" fill-rule="evenodd" opacity="0.399679">
        <g id="画板" transform="translate(-39, -294)" fill="#5D6177" fill-rule="nonzero">
            <g id="不包含" transform="translate(46.841, 302) scale(-1, 1) translate(-46.841, -302)translate(40, 295)">
                <path d="M1.9093592,5.40909092 C1.9093592,4.17963637 2.90717738,3.18181819 4.13663193,3.18181819 L13.6820865,3.18181819 L13.6820865,1.27272727 L4.13663193,1.27272727 C2.65878763,1.27263142 1.29316218,2.06099691 0.554212363,3.34083164 C-0.184737454,4.62066637 -0.184737454,6.19751545 0.554212363,7.47735017 C1.29316218,8.7571849 2.65878763,9.54555039 4.13663193,9.54545454 L13.6820865,9.54545454 L13.6820865,7.63636364 L4.13663193,7.63636364 C2.90654316,7.63636364 1.9093592,6.63917968 1.9093592,5.40909092 Z M0.318450113,12.6572727 L13.6820865,12.6572727 L13.6820865,10.7481818 L0.318450113,10.7481818 L0.318450113,12.6572727 Z" id="形状"></path>
                <polygon id="路径" points="10.5002683 0 12.4093592 0 4.77299557 14 2.86390465 14"></polygon>
            </g>
        </g>
    </g>
</svg>