<?xml version="1.0" encoding="UTF-8"?>
<svg width="50px" height="50px" viewBox="0 0 50 50" version="1.1" xmlns="http://www.w3.org/2000/svg" xmlns:xlink="http://www.w3.org/1999/xlink">
    <title>创建成功</title>
    <g id="页面-1" stroke="none" stroke-width="1" fill="none" fill-rule="evenodd">
        <g id="画板" transform="translate(-409, -793)" fill="#31CF9A" fill-rule="nonzero">
            <g id="编组-4备份-8" transform="translate(194, 730)">
                <g id="创建成功" transform="translate(215, 63)">
                    <path d="M33.3255559,6.31517669 C25.0532492,2.63074471 15.342877,4.8260661 9.45995275,11.7107134 C3.57702851,18.5953606 2.92284674,28.5294319 7.85214183,36.1261115 C12.7814369,43.7227911 22.1200658,47.1725732 30.8040955,44.6047908 C39.4881252,42.0370083 45.4490464,34.0632992 45.4545102,25.0074598 L45.4545102,22.9158249 C45.454386,22.104461 45.8871652,21.3546767 46.5897952,20.9489589 C47.2924252,20.543241 48.1581368,20.543241 48.8607668,20.9489589 C49.5633968,21.3546767 49.9960518,22.104461 49.9960518,22.9158249 L49.9960518,25.0074598 C49.9925887,36.0793884 42.7065554,45.8300442 32.0896579,48.9709907 C21.4727604,52.1119373 10.0545726,47.8948149 4.02794603,38.6068527 C-1.99868057,29.3188906 -1.19784651,17.1730316 5.99610203,8.75679219 C13.1900506,0.340552755 25.0630888,-2.34082024 35.1756694,2.16696215 C35.9166649,2.49745829 36.4250581,3.19817194 36.5093423,4.00515105 C36.5936265,4.81213016 36.2409969,5.60277539 35.5842856,6.07925834 C34.9275743,6.55574129 34.0665514,6.64567286 33.3255559,6.31517669 Z M49.333906,5.2245663 C49.7603702,5.6505062 50,6.2285235 50,6.83126911 C50,7.43401471 49.7603702,8.01203201 49.333906,8.43797192 L26.6106179,31.1810937 C26.1846847,31.6075646 25.6066765,31.8471982 25.0039404,31.8471982 C24.4012043,31.8471982 23.8231961,31.6075646 23.3972629,31.1810937 L16.5810555,24.3647787 C16.0070449,23.7907591 15.7828683,22.9541072 15.9929707,22.1699818 C16.2030732,21.3858564 16.8155351,20.7733848 17.5996482,20.563279 C18.3837612,20.3531732 19.2203998,20.5773534 19.7944104,21.151373 L25.0019929,26.3590377 L46.1166561,5.2245663 C46.5425893,4.79809536 47.1205974,4.55846178 47.7233335,4.55846178 C48.3260696,4.55846178 48.9040778,4.79809536 49.330011,5.2245663 L49.333906,5.2245663 Z" id="形状"></path>
                </g>
            </g>
        </g>
    </g>
</svg>